<svg width="151" height="51" viewBox="0 0 151 51" fill="none" xmlns="http://www.w3.org/2000/svg">
<path d="M6.752 26.752C2.72 26.752 0 23.392 0 18.56C0 13.152 3.328 9.6 8.16 9.6C9.792 9.6 11.392 10.048 12.64 10.816L12.672 3.584L10.432 2.656L16.48 0V23.808L18.56 24.448L12.64 26.848V24.064C10.912 25.184 8.48 26.752 6.752 26.752ZM8.928 24.96C9.952 24.96 11.296 24.352 12.64 23.552V15.2C12.448 12.256 10.784 10.144 8.576 10.144C5.824 10.144 4.032 13.056 4.032 17.44C4.032 21.984 6.016 24.96 8.928 24.96Z" fill="white"/>
<path d="M24.742 26.752C20.198 26.752 16.998 23.488 16.998 18.56C16.998 13.312 20.294 9.6 24.838 9.6C28.646 9.6 31.238 12.096 31.238 15.776V16.032H20.87C20.87 16.384 20.838 16.704 20.838 17.056C20.838 21.152 23.046 24.064 26.438 24.064C29.03 24.064 30.822 22.528 31.718 19.584C31.046 24.064 28.39 26.752 24.742 26.752ZM20.934 15.52H26.566C27.366 15.52 27.654 15.008 27.654 14.208C27.654 12.032 26.47 10.112 24.838 10.112C22.854 10.112 21.318 12.256 20.934 15.52Z" fill="white"/>
<path d="M36.989 26.752C35.229 26.752 32.989 26.464 31.357 25.952V25.344L30.525 19.904C31.549 22.528 34.205 26.176 37.597 26.176C39.453 26.176 40.765 24.992 40.765 23.264C40.765 19.072 31.101 20.768 31.101 14.784C31.101 11.808 33.661 9.6 37.373 9.6C39.101 9.6 40.925 9.984 42.141 10.56V11.136L42.781 15.616C41.149 12.48 39.197 10.176 36.573 10.176C34.781 10.176 33.501 11.264 33.501 12.832C33.501 16.96 43.197 15.136 43.197 21.504C43.197 24.576 40.797 26.752 36.989 26.752Z" fill="white"/>
<path d="M48.0628 6.56H43.7428V2.176H48.0628V6.56ZM42.1748 26.368L44.1908 24.96V13.152L41.9508 12.256L47.9988 9.6V24.96L50.0468 26.368H42.1748Z" fill="white"/>
<path d="M54.3703 35.52C50.3382 35.52 47.2982 33.696 47.2982 31.264C47.2982 29.632 49.0583 28.384 51.1063 27.84V27.552C49.6663 27.104 48.8022 26.08 48.8022 24.768C48.8022 23.36 49.9543 21.952 51.9062 20.48C50.3063 19.392 49.3143 17.664 49.3143 15.776C49.3143 12.32 52.3223 9.6 56.1302 9.6C58.2103 9.6 58.7863 10.4 60.9303 10.4H64.7383V11.744H61.2822C62.2743 12.832 62.8503 14.208 62.8503 15.776C62.8503 19.104 59.8742 21.76 56.1302 21.76C54.6903 21.76 53.3783 21.376 52.2902 20.704C51.4902 21.376 50.9782 22.208 50.9782 22.912C50.9782 23.84 51.7463 24.448 52.8662 24.448H60.7703C63.2023 24.448 64.8982 25.6 64.8982 27.648C64.8982 31.808 58.9463 35.52 54.3703 35.52ZM56.1302 21.248C58.0182 21.248 59.1702 19.264 59.1702 15.776C59.1702 12.224 58.0182 10.112 56.1302 10.112C54.1462 10.112 52.9622 12.192 52.9622 15.776C52.9622 19.2 54.1462 21.248 56.1302 21.248ZM56.6743 33.536C60.5143 33.472 63.2983 31.712 63.2983 29.568C63.2983 28.48 62.5623 27.84 60.9303 27.84H53.3143C51.4583 27.84 50.4342 28.8 50.4342 30.08C50.4342 32.096 53.0263 33.6 56.6743 33.536Z" fill="white"/>
<path d="M63.1022 26.368L65.1182 24.96V13.184L62.8783 12.256L68.9262 9.6V12.48C70.9102 11.2 73.4703 9.6 74.9743 9.6C77.6302 9.6 79.5182 11.52 79.5182 14.4V24.96L81.5023 26.368H73.5342L75.7103 24.96V14.592C75.7103 12.8 74.4942 11.424 72.9583 11.424C71.7422 11.424 70.2702 12.16 68.9262 12.928V24.96L71.0703 26.368H63.1022Z" fill="white"/>
<path d="M84.3744 41.891C81.6864 41.891 80.3424 40.003 81.0464 37.379L83.8304 27.427L81.1424 26.403L84.2144 24.515L84.7584 22.307L89.0464 20.835L88.0224 25.187H93.0464L92.6304 26.915H87.5744L85.0464 37.603C84.6944 39.011 85.1744 39.875 86.3584 39.875C87.9264 39.875 89.9104 38.179 91.3504 35.619C89.6544 39.459 87.0944 41.891 84.3744 41.891Z" fill="white"/>
<path d="M93.6932 41.507H89.8212L95.3252 18.595L93.1492 17.827L99.9652 15.427L95.3572 34.563H95.5492C97.7572 29.059 100.573 24.739 103.901 24.739C106.365 24.739 107.709 26.883 106.909 29.699L104.381 38.563C104.125 39.363 104.349 39.715 104.733 39.715C105.533 39.715 106.973 38.051 108.797 33.731C107.005 39.523 105.149 41.891 102.749 41.891C100.765 41.891 99.9012 40.515 100.573 38.179L103.133 29.187C103.549 27.651 103.037 26.531 101.853 26.531C98.9092 26.531 95.3892 34.883 93.6932 41.507Z" fill="white"/>
<path d="M116.315 21.667H111.995L112.923 17.379H117.243L116.315 21.667ZM110.747 41.891C108.827 41.891 107.931 40.643 108.539 38.371L111.163 28.163C111.387 27.203 111.259 26.947 110.875 26.947C110.107 26.947 108.603 28.803 107.067 31.971C108.539 27.427 110.843 24.739 113.243 24.739C114.715 24.739 115.643 25.763 115.131 27.811L112.379 38.531C112.187 39.331 112.315 39.715 112.731 39.715C113.563 39.715 114.971 38.051 116.827 33.731C115.003 39.523 113.147 41.891 110.747 41.891Z" fill="white"/>
<path d="M115.108 31.971C116.58 27.427 118.884 24.739 121.284 24.739C122.756 24.739 123.652 25.827 123.172 27.715L121.54 34.563H121.764C123.908 29.059 126.756 24.739 130.116 24.739C132.676 24.739 133.924 26.851 133.092 29.699L130.596 38.563C130.34 39.363 130.532 39.715 130.916 39.715C131.748 39.715 133.188 38.051 135.012 33.731C133.22 39.523 131.364 41.891 128.9 41.891C126.948 41.891 126.084 40.515 126.756 38.179L129.348 29.187C129.796 27.651 129.252 26.531 128.068 26.531C125.092 26.531 121.668 34.883 119.908 41.507H116.004L119.204 28.067C119.396 27.203 119.3 26.947 118.916 26.947C118.148 26.947 116.644 28.803 115.108 31.971Z" fill="white"/>
<path d="M136.094 50.659C131.678 50.659 128.734 49.219 128.734 47.075C128.734 44.899 131.262 43.523 135.166 42.371L135.23 42.083C134.59 41.603 134.174 41.027 134.174 40.419C134.174 38.915 136.542 37.955 140.03 36.899H139.87C136.414 36.867 134.494 34.819 134.494 32.131C134.494 28.291 138.014 24.739 142.43 24.739C144.318 24.739 145.278 25.187 146.814 25.187H150.782L150.334 26.915H147.102C147.582 27.715 147.806 28.675 147.806 29.635C147.806 32.899 145.438 35.523 142.43 36.515C140.734 37.059 137.63 37.891 137.63 39.075C137.63 40.867 146.11 42.403 146.11 45.475C146.11 48.099 141.022 50.659 136.094 50.659ZM140.094 36.387C142.654 36.419 144.51 31.427 144.51 28.451C144.51 26.627 143.806 25.251 142.334 25.251C139.582 25.251 137.758 30.115 137.758 33.059C137.758 34.947 138.526 36.387 140.094 36.387ZM137.47 49.795C139.838 49.795 142.654 48.867 142.654 46.947C142.654 45.155 138.366 44.067 135.87 42.531C133.662 43.363 132.254 44.739 132.254 46.339C132.254 48.419 134.558 49.795 137.47 49.795Z" fill="white"/>
</svg>
